{
  "accessors": [
    {
      "bufferView": 2,
      "componentType": 5126,
      "count": 346,
      "max": [
        0.5136376619338989,
        1.6285114288330078,
        0.8431886434555054
      ],
      "min": [
        0.33385592699050903,
        0.15494337677955627,
        -0.04530620574951172
      ],
      "type": "VEC3"
    },
    {
      "bufferView": 2,
      "byteOffset": 4152,
      "componentType": 5126,
      "count": 346,
      "max": [
        1.0,
        0.9720746874809265,
        0.9477025270462036
      ],
      "min": [
        0.2346706986427307,
        -0.8758090138435364,
        -0.9477027654647827
      ],
      "type": "VEC3"
    },
    {
      "bufferView": 1,
      "componentType": 5126,
      "count": 346,
      "max": [
        0.9884845614433289,
        0.9707691669464111
      ],
      "min": [
        0.011515527963638306,
        0.007838428020477295
      ],
      "type": "VEC2"
    },
    {
      "bufferView": 1,
      "byteOffset": 2768,
      "componentType": 5126,
      "count": 346,
      "max": [
        0.9884845614433289,
        0.9707691669464111
      ],
      "min": [
        0.011515527963638306,
        0.007838428020477295
      ],
      "type": "VEC2"
    },
    {
      "bufferView": 0,
      "componentType": 5125,
      "count": 498,
      "type": "SCALAR"
    },
    {
      "bufferView": 2,
      "byteOffset": 8304,
      "componentType": 5126,
      "count": 95,
      "max": [
        0.47911661863327026,
        1.6625280380249023,
        0.9167684316635132
      ],
      "min": [
        -0.47911661863327026,
        0.1326889991760254,
        -0.11112451553344727
      ],
      "type": "VEC3"
    },
    {
      "bufferView": 2,
      "byteOffset": 9444,
      "componentType": 5126,
      "count": 95,
      "max": [
        1.0,
        1.0,
        1.0
      ],
      "min": [
        -1.0,
        -1.0,
        -1.0
      ],
      "type": "VEC3"
    },
    {
      "bufferView": 1,
      "byteOffset": 5536,
      "componentType": 5126,
      "count": 95,
      "max": [
        0.8473613858222961,
        0.9254499077796936
      ],
      "min": [
        0.04052790626883507,
        0.20793500542640686
      ],
      "type": "VEC2"
    },
    {
      "bufferView": 0,
      "byteOffset": 1992,
      "componentType": 5125,
      "count": 231,
      "type": "SCALAR"
    },
    {
      "bufferView": 2,
      "byteOffset": 10584,
      "componentType": 5126,
      "count": 386,
      "max": [
        0.5136376619338989,
        1.6285114288330078,
        -1.4036058187484741
      ],
      "min": [
        0.33385592699050903,
        0.15494337677955627,
        -2.292100667953491
      ],
      "type": "VEC3"
    },
    {
      "bufferView": 2,
      "byteOffset": 15216,
      "componentType": 5126,
      "count": 386,
      "max": [
        1.0,
        0.9720746874809265,
        0.9477023482322693
      ],
      "min": [
        0.2346705198287964,
        -0.8758090734481812,
        -0.9477028250694275
      ],
      "type": "VEC3"
    },
    {
      "bufferView": 1,
      "byteOffset": 6296,
      "componentType": 5126,
      "count": 386,
      "max": [
        0.9884845614433289,
        0.9707691669464111
      ],
      "min": [
        0.011515527963638306,
        0.007838428020477295
      ],
      "type": "VEC2"
    },
    {
      "bufferView": 1,
      "byteOffset": 9384,
      "componentType": 5126,
      "count": 386,
      "max": [
        0.9884845614433289,
        0.9707691669464111
      ],
      "min": [
        0.011515527963638306,
        0.007838428020477295
      ],
      "type": "VEC2"
    },
    {
      "bufferView": 0,
      "byteOffset": 2916,
      "componentType": 5125,
      "count": 564,
      "type": "SCALAR"
    },
    {
      "bufferView": 2,
      "byteOffset": 19848,
      "componentType": 5126,
      "count": 95,
      "max": [
        0.47911661863327026,
        1.6625280380249023,
        -1.3300260305404663
      ],
      "min": [
        -0.47911661863327026,
        0.1326889991760254,
        -2.3579189777374268
      ],
      "type": "VEC3"
    },
    {
      "bufferView": 2,
      "byteOffset": 20988,
      "componentType": 5126,
      "count": 95,
      "max": [
        1.0,
        1.0,
        1.0
      ],
      "min": [
        -1.0,
        -1.0,
        -1.0
      ],
      "type": "VEC3"
    },
    {
      "bufferView": 1,
      "byteOffset": 12472,
      "componentType": 5126,
      "count": 95,
      "max": [
        0.8473613858222961,
        0.9254499077796936
      ],
      "min": [
        0.04052790626883507,
        0.20793500542640686
      ],
      "type": "VEC2"
    },
    {
      "bufferView": 0,
      "byteOffset": 5172,
      "componentType": 5125,
      "count": 231,
      "type": "SCALAR"
    }
  ],
  "asset": {
    "extras": {
      "author": "Condo (https://sketchfab.com/killercondo99)",
      "license": "CC-BY-4.0 (http://creativecommons.org/licenses/by/4.0/)",
      "source": "https://sketchfab.com/3d-models/speakers-low-poly-b2e3d6ecef4e40d994066416c395bf0a",
      "title": "Speakers Low Poly"
    },
    "generator": "Sketchfab-12.65.0",
    "version": "2.0"
  },
  "bufferViews": [
    {
      "buffer": 0,
      "byteLength": 6096,
      "name": "floatBufferViews",
      "target": 34963
    },
    {
      "buffer": 0,
      "byteLength": 13232,
      "byteOffset": 6096,
      "byteStride": 8,
      "name": "floatBufferViews",
      "target": 34962
    },
    {
      "buffer": 0,
      "byteLength": 22128,
      "byteOffset": 19328,
      "byteStride": 12,
      "name": "floatBufferViews",
      "target": 34962
    }
  ],
  "buffers": [
    {
      "byteLength": 41456,
      "uri": "scene.bin"
    }
  ],
  "images": [
    {
      "uri": "textures/lambert2_baseColor.png"
    },
    {
      "uri": "textures/lambert3_baseColor.png"
    }
  ],
  "materials": [
    {
      "alphaMode": "BLEND",
      "doubleSided": true,
      "name": "lambert2",
      "pbrMetallicRoughness": {
        "baseColorTexture": {
          "index": 0
        },
        "metallicFactor": 0.0,
        "roughnessFactor": 0.6
      }
    },
    {
      "doubleSided": true,
      "name": "lambert3",
      "pbrMetallicRoughness": {
        "baseColorTexture": {
          "index": 1
        },
        "metallicFactor": 0.0,
        "roughnessFactor": 0.6
      }
    }
  ],
  "meshes": [
    {
      "name": "polySurface11_lambert2_0",
      "primitives": [
        {
          "attributes": {
            "NORMAL": 1,
            "POSITION": 0,
            "TEXCOORD_0": 2,
            "TEXCOORD_1": 3
          },
          "indices": 4,
          "material": 0,
          "mode": 4
        }
      ]
    },
    {
      "name": "polySurface11_lambert3_0",
      "primitives": [
        {
          "attributes": {
            "NORMAL": 6,
            "POSITION": 5,
            "TEXCOORD_0": 7
          },
          "indices": 8,
          "material": 1,
          "mode": 4
        }
      ]
    },
    {
      "name": "polySurface13_lambert2_0",
      "primitives": [
        {
          "attributes": {
            "NORMAL": 10,
            "POSITION": 9,
            "TEXCOORD_0": 11,
            "TEXCOORD_1": 12
          },
          "indices": 13,
          "material": 0,
          "mode": 4
        }
      ]
    },
    {
      "name": "polySurface13_lambert3_0",
      "primitives": [
        {
          "attributes": {
            "NORMAL": 15,
            "POSITION": 14,
            "TEXCOORD_0": 16
          },
          "indices": 17,
          "material": 1,
          "mode": 4
        }
      ]
    }
  ],
  "nodes": [
    {
      "children": [
        1
      ],
      "matrix": [
        1.0,
        0.0,
        0.0,
        0.0,
        0.0,
        2.220446049250313e-16,
        -1.0,
        0.0,
        0.0,
        1.0,
        2.220446049250313e-16,
        0.0,
        0.0,
        0.0,
        0.0,
        1.0
      ],
      "name": "Sketchfab_model"
    },
    {
      "children": [
        2
      ],
      "matrix": [
        1.0,
        0.0,
        0.0,
        0.0,
        0.0,
        0.0,
        1.0,
        0.0,
        0.0,
        -1.0,
        0.0,
        0.0,
        0.0,
        0.0,
        0.0,
        1.0
      ],
      "name": "speakers.fbx"
    },
    {
      "children": [
        3,
        6
      ],
      "name": "RootNode"
    },
    {
      "children": [
        4,
        5
      ],
      "matrix": [
        0.8933578000689935,
        0.0,
        -0.4493460148436706,
        0.0,
        0.0,
        1.0,
        0.0,
        0.0,
        0.4493460148436706,
        0.0,
        0.8933578000689935,
        0.0,
        -0.17916573584079742,
        0.0,
        0.05071376636624336,
        1.0
      ],
      "name": "polySurface11"
    },
    {
      "mesh": 0,
      "name": "polySurface11_lambert2_0"
    },
    {
      "mesh": 1,
      "name": "polySurface11_lambert3_0"
    },
    {
      "children": [
        7,
        8
      ],
      "matrix": [
        0.8828194304284915,
        0.0,
        0.4697125219300778,
        0.0,
        0.0,
        1.0,
        0.0,
        0.0,
        -0.4697125219300778,
        0.0,
        0.8828194304284915,
        0.0,
        -0.8641144037246704,
        0.0,
        -1.0105373859405518,
        1.0
      ],
      "name": "polySurface13"
    },
    {
      "mesh": 2,
      "name": "polySurface13_lambert2_0"
    },
    {
      "mesh": 3,
      "name": "polySurface13_lambert3_0"
    }
  ],
  "samplers": [
    {
      "magFilter": 9729,
      "minFilter": 9987,
      "wrapS": 10497,
      "wrapT": 10497
    }
  ],
  "scene": 0,
  "scenes": [
    {
      "name": "Sketchfab_Scene",
      "nodes": [
        0
      ]
    }
  ],
  "textures": [
    {
      "sampler": 0,
      "source": 0
    },
    {
      "sampler": 0,
      "source": 1
    }
  ]
}
